<svg width="21" height="35" viewBox="0 0 21 35" fill="none" xmlns="http://www.w3.org/2000/svg">
<path d="M13.2286 15.6432C12.2106 15.3501 11.1926 15.2014 10.2024 15.2014C8.67321 15.2014 7.39725 15.5509 6.40787 15.9788C7.36169 12.4869 9.65305 6.46175 14.2175 5.78323C14.6403 5.72037 14.9867 5.41471 15.102 5.00326L16.0996 1.43508C16.1837 1.13332 16.1339 0.81032 15.9618 0.548451C15.7896 0.286582 15.513 0.111858 15.203 0.0693692C14.8662 0.0234121 14.5228 0 14.1824 0C8.70356 0 3.27758 5.71863 0.987957 13.9068C-0.356073 18.7106 -0.750177 25.9328 2.56047 30.4787C4.41307 33.0224 7.11587 34.3807 10.5939 34.5164C10.6082 34.5169 10.6221 34.5173 10.6364 34.5173C14.9277 34.5173 18.7331 31.6272 19.8907 27.4897C20.5822 25.0163 20.2696 22.4223 19.0097 20.1839C17.7632 17.9705 15.7103 16.3573 13.2286 15.6432Z" fill="#D93059"/>
</svg>
